<svg width="233" height="26" viewBox="0 0 233 26" fill="none" xmlns="http://www.w3.org/2000/svg">
<path d="M7.092 25H0.18L8.712 0.879999H17.748L26.28 25H19.188L17.712 20.5H8.568L7.092 25ZM11.52 11.572L10.368 15.1H15.912L14.76 11.572L13.14 5.524L11.52 11.572ZM33.3731 25H26.8931V0.879999H33.3731L40.4651 11.752L42.4811 15.532L42.0131 8.44V0.879999H48.4931V25H42.2291L34.8851 14.164L32.7971 10.456L33.3731 18.268V25ZM63.1474 25H56.6674V6.64H49.7194V0.879999H70.0954V6.64H63.1474V25ZM77.8106 25H71.3306V0.879999H77.8106V25ZM90.1159 25.288C84.7879 25.288 80.0719 21.652 80.0719 12.904C80.0719 5.668 84.7159 0.52 92.7799 0.52C97.9279 0.52 101.924 2.824 103.688 6.388L98.2879 10.672C97.7839 8.44 95.7679 6.784 92.7799 6.784C88.9999 6.784 87.0919 9.196 87.0919 12.904C87.0919 17.008 89.3959 19.204 92.7439 19.204C95.2639 19.204 96.8839 18.124 97.8559 16.54H91.7719V11.5H103.94V25H99.5479L98.1799 16.54C97.8559 22.516 94.9759 25.288 90.1159 25.288ZM113.565 25H107.085V0.879999H118.641C124.257 0.879999 128.289 3.112 128.289 8.44C128.289 13.084 125.157 15.136 121.053 15.496C123.537 16.108 124.617 17.656 125.841 19.564L129.297 25H121.917L117.921 18.556C116.949 16.972 116.049 16.36 114.069 16.36H113.565V25ZM118.713 6.64H113.565V11.176H118.713C120.549 11.176 121.449 10.384 121.449 8.908C121.449 7.396 120.549 6.64 118.713 6.64ZM135.869 25H128.957L137.489 0.879999H146.525L155.057 25H147.965L146.489 20.5H137.345L135.869 25ZM140.297 11.572L139.145 15.1H144.689L143.537 11.572L141.917 5.524L140.297 11.572ZM169.93 25H161.038L152.758 0.879999H160.498L163.846 12.58L165.61 21.22L167.374 12.58L170.686 0.879999H178.21L169.93 25ZM185.6 25H179.12V0.879999H185.6V25ZM200.257 25H193.777V6.64H186.829V0.879999H207.205V6.64H200.257V25ZM222.948 25H216.468V17.224L207.18 0.879999H215.388L217.728 6.208L219.852 11.752L221.976 6.208L224.352 0.879999H232.344L222.948 17.296V25Z" fill="url(#paint0_linear_3797_3575)"/>
<defs>
<linearGradient id="paint0_linear_3797_3575" x1="116.5" y1="-8" x2="116.5" y2="37" gradientUnits="userSpaceOnUse">
<stop offset="0.13" stop-color="white"/>
<stop offset="1" stop-color="#999999"/>
</linearGradient>
</defs>
</svg>
