<svg width="226" height="30" viewBox="0 0 226 30" fill="none" xmlns="http://www.w3.org/2000/svg">
<path d="M17.574 29H6.92283L0.842433 0.904392H9.56465L11.7452 15.078L12.5 24.2615L13.7161 16.1263L16.5257 0.904392H26.5898L29.3993 16.1263L30.5735 24.2615L31.3702 15.078L33.5508 0.904392H42.273L36.1926 29H25.5414L22.9415 16.5876L21.5577 5.97837L20.2158 16.5876L17.574 29ZM51.0909 29H43.5428V0.904392H51.0909V29ZM66.78 29.4193C61.3286 29.4193 56.2127 27.8259 53.0257 24.4712L57.7223 18.3908C60.0706 21.2423 63.9285 22.7099 67.1993 22.7099C69.1283 22.7099 70.3443 22.2487 70.3443 21.0745C70.3443 19.6488 68.9186 18.9359 65.1865 18.223L62.3769 17.6779C57.5545 16.7553 53.5289 14.6167 53.5289 9.29114C53.5289 3.58815 58.4352 0.568921 64.6833 0.568921C70.1766 0.568921 74.4958 2.49787 77.3053 5.2655L72.6507 11.262C70.4282 8.91374 66.8219 7.27832 63.8027 7.27832C62.335 7.27832 61.2866 7.78152 61.2866 8.78794C61.2866 10.3395 62.9221 10.8846 65.6897 11.5136L69.0025 12.2684C75.1248 13.6522 78.1021 16.2102 78.1021 20.8649C78.1021 26.5678 73.2378 29.4193 66.78 29.4193ZM87.9876 29H80.4396V0.904392H87.9876V11.5975H98.0517V0.904392H105.6V29H98.0517V18.3069H87.9876V29ZM131.54 29H120.889L114.809 0.904392H123.531L125.712 15.078L126.466 24.2615L127.683 16.1263L130.492 0.904392H140.556L143.366 16.1263L144.54 24.2615L145.337 15.078L147.517 0.904392H156.239L150.159 29H139.508L136.908 16.5876L135.524 5.97837L134.182 16.5876L131.54 29ZM179.021 29H157.509V0.904392H179.021V7.61379H165.057V11.5975H176.925V18.3069H165.057V22.2906H179.021V29ZM202.722 29H181.629V0.904392H189.177V22.2906H202.722V29ZM225.491 29H204.398V0.904392H211.946V22.2906H225.491V29Z" fill="url(#paint0_linear_819_13322)"/>
<defs>
<linearGradient id="paint0_linear_819_13322" x1="113.423" y1="-9" x2="113.423" y2="43" gradientUnits="userSpaceOnUse">
<stop offset="0.13" stop-color="white"/>
<stop offset="1" stop-color="#999999"/>
</linearGradient>
</defs>
</svg>
